<?xml version="1.0" encoding="UTF-8" standalone="no"?>
<!-- Created with Inkscape (http://www.inkscape.org/) -->

<svg
   xmlns:dc="http://purl.org/dc/elements/1.1/"
   xmlns:cc="http://creativecommons.org/ns#"
   xmlns:rdf="http://www.w3.org/1999/02/22-rdf-syntax-ns#"
   xmlns:svg="http://www.w3.org/2000/svg"
   xmlns="http://www.w3.org/2000/svg"
   xmlns:sodipodi="http://sodipodi.sourceforge.net/DTD/sodipodi-0.dtd"
   xmlns:inkscape="http://www.inkscape.org/namespaces/inkscape"
   id="svg2985"
   version="1.1"
   inkscape:version="0.48.5 r10040"
   width="206.56088"
   height="240.12703"
   sodipodi:docname="logo.svg">
  <metadata
     id="metadata2991">
    <rdf:RDF>
      <cc:Work
         rdf:about="">
        <dc:format>image/svg+xml</dc:format>
        <dc:type
           rdf:resource="http://purl.org/dc/dcmitype/StillImage" />
        <dc:title></dc:title>
      </cc:Work>
    </rdf:RDF>
  </metadata>
  <defs
     id="defs2989" />
  <sodipodi:namedview
     pagecolor="#ffffff"
     bordercolor="#666666"
     borderopacity="1"
     objecttolerance="10"
     gridtolerance="10"
     guidetolerance="10"
     inkscape:pageopacity="0"
     inkscape:pageshadow="2"
     inkscape:window-width="1366"
     inkscape:window-height="715"
     id="namedview2987"
     showgrid="false"
     inkscape:snap-global="false"
     fit-margin-top="0"
     fit-margin-left="0"
     fit-margin-right="0"
     fit-margin-bottom="0"
     inkscape:zoom="1.0954357"
     inkscape:cx="10.218974"
     inkscape:cy="112.43735"
     inkscape:window-x="-8"
     inkscape:window-y="22"
     inkscape:window-maximized="1"
     inkscape:current-layer="svg2985" />
  <path
     style="fill:#800080;fill-opacity:1"
     d="M 0,120.06351 0,0 l 103.28045,0 103.28044,0 0,120.06351 0,120.06352 -103.28044,0 L 0,240.12703 0,120.06351 z M 133.90163,236.9099 c 4.80717,-0.78721 12.26516,-4.32972 15.13904,-7.19099 4.37933,-4.3601 5.33313,-6.61726 5.94325,-14.0647 0.30794,-3.75874 0.38304,-9.59359 0.16689,-12.96634 -0.37645,-5.874 -0.53045,-6.37287 -3.65636,-11.84461 -1.79485,-3.14178 -3.81708,-5.91717 -4.49384,-6.16752 -1.16615,-0.43138 -1.17144,-0.50395 -0.10116,-1.38819 0.62112,-0.51316 2.446,-0.93302 4.05529,-0.93302 l 2.92598,0 2.84465,-6.77778 c 5.3973,-12.85981 5.39262,-12.91005 -1.2035,-12.91005 -5.30465,0 -4.87833,-0.31654 -13.67877,10.15653 -11.49255,13.67687 -22.62885,19.95337 -39.20816,22.098 -20.38111,2.63642 -44.4018,-3.90632 -49.33004,-13.43648 -0.62487,-1.20836 -1.55453,-2.03498 -2.28866,-2.03498 -2.06036,0 -2.06841,-1.10755 -0.0111,-1.51903 2.19397,-0.43879 2.7266,-2.74776 0.79641,-3.45237 -0.6213,-0.22681 -1.82238,-0.94388 -2.66907,-1.5935 -0.84668,-0.64963 -2.19088,-1.18113 -2.98709,-1.18113 -0.79622,0 -1.80928,-0.43572 -2.25125,-0.96826 -2.74396,-3.30626 -12.64424,3.17629 -11.3033,7.40122 0.21025,0.66244 0.0711,1.39676 -0.3093,1.63183 -1.47035,0.90874 0.99293,8.22055 3.03318,9.00346 0.46677,0.17912 1.60556,-0.0192 2.53064,-0.44068 1.81542,-0.82716 1.48727,-1.06654 6.08936,4.44221 0.90989,1.08915 2.4383,2.49394 3.39647,3.12175 0.95818,0.62782 1.92297,1.90465 2.144,2.83742 0.79659,3.36168 4.3135,5.89169 8.18992,5.89169 1.67468,0 2.29867,-0.31603 2.55433,-1.29367 0.22302,-0.85283 0.68296,-1.16141 1.3497,-0.90556 0.90165,0.346 0.90572,0.4938 0.0375,1.36206 -0.74955,0.74955 -0.80187,1.18127 -0.22712,1.87381 1.05799,1.2748 3.81626,1.1651 3.81626,-0.15177 0,-0.9123 0.53448,-0.98624 4.03439,-0.55807 2.21892,0.27146 7.51832,0.81731 11.77645,1.21301 l 7.74206,0.71945 1.13869,2.42063 c 0.62627,1.33135 1.46244,2.42064 1.85814,2.42064 0.48803,0 0.45808,0.31495 -0.0931,0.97908 -1.45993,1.75912 -0.93724,5.69928 1.31716,9.92896 2.29525,4.30634 6.72379,9.7437 7.9451,9.75501 0.41361,0.004 3.22107,1.16259 6.23879,2.57505 l 5.48678,2.5681 8.71428,0.003 c 4.79286,0.002 10.43906,-0.27923 12.54711,-0.62443 l 0,-1e-5 z m 46.43865,-44.73615 c 0.75431,-0.55157 1.32012,-2.23611 1.6803,-5.00265 0.29867,-2.29408 1.01608,-5.47542 1.59425,-7.06963 0.57815,-1.59421 1.22355,-4.64421 1.43421,-6.77778 0.21066,-2.13357 0.80946,-4.37051 1.33067,-4.97098 1.16465,-1.34176 0.6315,-6.33064 -1.19399,-11.17279 -0.66923,-1.77513 -1.21693,-3.85733 -1.21711,-4.62709 -5.4e-4,-2.37893 -0.71962,-3.44169 -2.32864,-3.44169 -0.99824,0 -1.5447,-0.37267 -1.5447,-1.05344 0,-1.94928 -2.67335,-5.4007 -5.43829,-7.02106 -3.16937,-1.85737 -5.443,-2.0227 -8.20126,-0.59635 -1.61256,0.83388 -3.2575,0.93156 -9.35981,0.55578 l -7.40344,-0.45591 -1.91316,1.95683 c -2.27169,2.32353 -5.55211,3.98084 -8.66959,4.37998 -1.24283,0.15912 -4.60272,1.49934 -7.46642,2.97826 -5.4993,2.84004 -9.64327,6.91775 -9.64327,9.48906 0,1.19038 0.3704,1.3859 2.62551,1.3859 2.3339,0 2.57988,0.14374 2.21475,1.29419 -1.14468,3.60656 6.79749,1.91556 14.91763,-3.17617 8.29571,-5.20183 10.88635,-6.13593 15.43965,-5.56703 4.96713,0.6206 11.07737,3.88411 13.35393,7.13238 0.99293,1.41674 2.14063,4.18211 2.55044,6.14526 0.8288,3.97016 0.51428,4.95819 -2.97178,9.33564 -1.5523,1.94922 -1.75873,2.57555 -1.13784,3.45239 2.15374,3.04161 2.91336,5.18553 2.8508,8.0461 -0.0498,2.27571 0.26651,3.43626 1.1874,4.35715 1.46233,1.46233 5.56417,1.70006 7.30976,0.42365 z M 17.72333,189.17761 c 0.20402,-0.33012 0.657,-2.85635 1.00662,-5.61384 0.44277,-3.49222 1.11315,-5.70962 2.20918,-7.3072 1.29803,-1.89202 1.6527,-3.42371 2.0258,-8.7486 0.51005,-7.27968 1.04277,-9.2212 2.68412,-9.78248 0.62662,-0.21428 1.87451,-1.2437 2.77308,-2.2876 1.60684,-1.86673 1.68533,-1.88503 4.76174,-1.11038 2.54896,0.64184 3.49429,1.30733 5.1069,3.59516 1.83119,2.59794 2.19395,2.80752 4.85937,2.80752 2.52082,0 3.18711,0.32237 5.33666,2.58201 1.35091,1.42011 2.65757,2.58201 2.90368,2.58201 1.47344,0 8.60326,4.05111 10.09864,5.73798 1.94937,2.19898 3.84524,2.66385 6.79537,1.66624 1.27648,-0.43166 -0.84254,-4.06111 -3.13088,-5.36256 -1.37963,-0.78463 -2.14284,-1.94792 -2.83697,-4.32408 -0.52227,-1.78789 -2.11653,-5.77654 -3.5428,-8.86369 -2.08426,-4.51137 -3.1338,-5.9907 -5.34754,-7.53735 -1.51488,-1.05838 -4.36099,-3.07484 -6.32468,-4.48101 -1.9637,-1.40618 -5.79591,-3.75714 -8.51604,-5.22436 l -4.94569,-2.66767 -6.34223,1.83175 c -6.42463,1.85555 -15.47723,6.57414 -18.22613,9.5002 -0.79114,0.84213 -1.59647,2.87252 -1.89937,4.78864 -0.28923,1.82964 -1.00462,3.85562 -1.58975,4.5022 -0.82251,0.90885 -1.06389,2.49535 -1.06389,6.9924 0,9.42191 3.21336,19.80461 7.7168,24.93373 2.02958,2.31158 4.63981,3.1634 5.48801,1.79098 z m 79.28918,-29.84328 c 1.49472,-0.76772 4.58022,-1.78979 6.85667,-2.27126 4.38369,-0.92716 8.4483,-3.01083 8.4483,-4.33094 0,-1.91232 -1.71586,-3.18099 -3.75161,-2.77384 -1.88384,0.37677 -2.05071,0.25244 -2.68148,-1.99782 -0.75567,-2.69585 -1.77014,-13.43317 -2.34991,-24.87183 -0.33921,-6.69233 -0.56688,-7.83535 -1.8601,-9.33881 -1.26764,-1.47373 -1.61923,-1.59227 -2.51577,-0.84821 -0.90198,0.74859 -1.04219,0.68576 -1.04219,-0.46701 0,-1.94276 -1.04125,-2.29134 -4.20148,-1.40653 -4.38525,1.22779 -5.66324,2.77567 -5.25959,6.37032 1.94776,17.34595 2.06134,26.89322 0.36425,30.61792 -0.97957,2.14992 -0.013,8.43556 1.69898,11.04834 1.33054,2.03067 2.74718,2.09136 6.29393,0.26967 l 0,0 z M 70.43083,121.83865 c 0.5298,-0.44379 2.07688,-2.21072 3.43795,-3.92652 1.36106,-1.71581 3.16168,-3.43267 4.00136,-3.81526 1.43291,-0.65288 1.52664,-1.03623 1.5257,-6.24014 -0.001,-6.69076 -1.05098,-9.18785 -5.02947,-11.963579 -3.85887,-2.6923 -10.0847,-3.07704 -14.29719,-0.88355 -5.93363,3.089719 -8.40783,8.666959 -8.4213,18.982969 -0.0107,8.1843 0.42245,8.52288 11.00389,8.60199 4.576,0.0342 7.13233,-0.21419 7.77906,-0.75591 l 0,0 z m 59.33995,-3.51566 c 5.09268,-5.80025 7.16652,-15.82265 4.1375,-19.99557 -2.00126,-2.756999 -6.77063,-4.860389 -11.79002,-5.199619 -3.97214,-0.26846 -4.54419,-0.13703 -7.21876,1.65847 -1.59762,1.07251 -3.74128,2.824139 -4.76369,3.892489 -1.82144,1.90331 -1.85664,2.07665 -1.74555,8.59748 0.0623,3.66025 0.4004,7.73935 0.75121,9.06465 0.61893,2.3382 2.61148,4.14772 3.77524,3.42847 0.3149,-0.19462 1.25295,-0.0812 2.08455,0.25198 0.83159,0.33322 4.02357,0.62426 7.09327,0.64676 l 5.58129,0.0409 2.09496,-2.38603 0,0 z M 91.0965,78.912716 C 94.68283,75.489395 95.74652,72.570464 94.86015,68.584671 94.41463,66.581263 92.22355,64.105702 82.1482,54.222234 75.4527,47.654244 66.64814,38.368177 62.58252,33.58653 50.74941,19.669394 52.19184,20.764837 29.83952,8.7201471 L 19.33511,3.05978 16.06301,4.757404 c -1.79965,0.933693 -3.96966,1.6976241 -4.82223,1.6976241 -1.87132,0 -5.43125,4.5385439 -5.43125,6.9242839 0,2.10552 2.56921,4.530244 8.39153,7.919604 6.27848,3.654903 6.94736,4.256417 7.43489,6.686013 0.84347,4.203494 0.91502,4.290211 3.54014,4.290211 3.6941,0 5.3537,0.86369 7.29428,3.7961 0.95905,1.44922 2.43531,2.808522 3.28058,3.020672 0.88308,0.221639 2.39024,1.702721 3.54293,3.481623 1.10334,1.702742 3.24335,4.161077 4.75557,5.462966 1.51223,1.301888 3.18522,2.758122 3.71776,3.236075 0.53254,0.477953 3.6753,2.488878 6.98393,4.468723 3.30862,1.979844 7.52052,4.8304 9.35979,6.334568 1.83926,1.504167 3.45172,2.808072 3.58326,2.897565 0.13152,0.08949 0.49262,1.555894 0.80243,3.258672 0.64497,3.544882 2.55579,5.59658 6.13193,6.583993 1.41826,0.391601 3.20344,1.663667 4.56179,3.250597 2.06172,2.408661 4.59921,3.70973 7.5164,3.853942 0.64769,0.03202 2.62309,-1.321544 4.38976,-3.00792 l 0,0 z m 38.6673,-1.261384 c 2.39121,-1.648072 3.09695,-2.748899 4.26074,-6.646025 1.86231,-6.236216 8.71672,-14.813528 23.26266,-29.109881 13.64616,-13.412006 23.00318,-20.652671 33.55838,-25.968186 6.32207,-3.183744 6.94005,-3.866067 5.69031,-6.2827899 -1.26855,-2.453115 -7.10788,-7.0624381 -8.94707,-7.0624381 -2.5862,0 -22.90689,12.737906 -29.85073,18.711759 -2.08212,1.791273 -5.3833,4.014398 -7.33594,4.940276 -4.30403,2.040826 -9.84784,6.634145 -12.0825,10.010945 -0.90454,1.366847 -2.00674,2.485176 -2.44933,2.485176 -1.92279,0 -8.77129,10.169015 -9.99867,14.846564 -0.9861,3.758015 -2.72731,6.556407 -6.92484,11.129313 -3.00565,3.274442 -3.40181,4.029932 -3.40181,6.487303 0,3.559632 0.82976,4.330478 4.66146,4.330478 2.69333,0 3.21122,0.217218 3.84752,1.613757 0.8825,1.93685 3.32603,2.156715 5.70982,0.513749 z"
     id="path3765"
     inkscape:connector-curvature="0" />
</svg>
